# xmcd
#
# Track frame offsets:
#	150
#	19956
#	40828
#	51204
#	67022
#	81332
#	93943
#	113619
#	126773
#	144524
#	160595
#	178122
#	194165
#	208876
#	220798
#	237965
#	253993
#	272968
#	286631
#	300663
#
# Disc length: 4210 seconds
#
# Revision: 2
# Processed by: cddbd v1.5.2PL0 Copyright (c) Steve Scherf et al.
# Submitted via: audiograbber 1.83.01
#
DISCID=2d107014
DTITLE=MIXED - COUNTRY SE 60 GROOTSTE TREFFERS
DYEAR=1900
DGENRE=Country
TTITLE0=CLIVE BRUCE - ONE LAST KISS
TTITLE1=BELLAMY BROTHERS - IF I SAID YOU HAD A BEAUTIFULL BODY
TTITLE2=KEN MULLEN - ROSE MARIE
TTITLE3=GENE ROCKWELL - HAVE A DREAM ON ME
TTITLE4=GLEN CAMPBELL - RHINESTONE COWBOY
TTITLE5=DON WILLIAMS - AMANDA
TTITLE6=FREDI NEST - AMAZED
TTITLE7=DIE CAMPBELLS - GREEN GREEN GRASS OF HOME
TTITLE8=RAY DYLAN - WALK AWAY
TTITLE9=DON KELLY - BECAUSE IT'S LOVE
TTITLE10=TOMMY DELL - HELP ME MAKE IT THROUGH THE NIGHT
TTITLE11=JOE DOLAN - IT' YOU IT'S YOU IT'S YOU
TTITLE12=JUICE NEWTON - QUEEN OF HEARTS
TTITLE13=NEIL HERBERT - SHE'S A WOMAN
TTITLE14=MAYWOOD - GIVE ME BACK MY LOVE
TTITLE15=SMOKIE - LIVING NEXT DOOR TO ALICE
TTITLE16=JODY WAYNE - TELL ME
TTITLE17=ROCKING HORES - I CAN'T DANCE
TTITLE18=CHEREE - SEVEN DAYS WITHOUT LOVE
TTITLE19=JJ STEPHENS - BUY ME A ROSE
EXTD=
EXTT0=
EXTT1=
EXTT2=
EXTT3=
EXTT4=
EXTT5=
EXTT6=
EXTT7=
EXTT8=
EXTT9=
EXTT10=
EXTT11=
EXTT12=
EXTT13=
EXTT14=
EXTT15=
EXTT16=
EXTT17=
EXTT18=
EXTT19=
PLAYORDER=
